<?xml version="1.0" encoding="utf-8"?>
<!-- Generator: Adobe Illustrator 25.0.1, SVG Export Plug-In . SVG Version: 6.00 Build 0)  -->
<svg version="1.1" width="200" height="45" id="Layer_1" xmlns="http://www.w3.org/2000/svg" xmlns:xlink="http://www.w3.org/1999/xlink" x="0px" y="0px"
	 viewBox="0 0 200 45" style="enable-background:new 0 0 200 45;" xml:space="preserve">
<style type="text/css">
	.st0{fill:#FFEB00;}
	.st1{fill:#FFFFFF;}
	.st2{fill:none;}
</style>
<g>
	<g>
		<path class="st0" d="M169.7,22.3c6.3,3.4,11.6,8.6,14.9,15.4c3.3-6.8,8.5-12,14.9-15.4L184.5,7.4L169.7,22.3z"/>
		<g>
			<polygon class="st1" points="12.7,33.3 9.5,33.3 9.5,24.4 0.6,11.6 4.7,11.6 11.1,21.2 17.5,11.5 21.6,11.5 12.7,24.3 			"/>
			<path class="st1" d="M29.3,11c-1.6,0-10.5,0.7-10.5,11.7C18.8,33,27.7,34,29.4,34c1.8,0,10.6-1,10.6-11.6
				C39.9,12.5,32,11,29.3,11z M29.5,31.1c-3.2,0-7.4-1.9-7.4-8.6c0-6.2,4-8.6,7.2-8.6c2.9,0,7.3,1.9,7.3,8.9
				C36.6,29.6,31.7,31.1,29.5,31.1z"/>
			<polygon class="st1" points="44.7,33.3 41.4,33.3 41.4,11.6 44.9,11.6 44.9,22 55,11.6 59.5,11.6 50.5,20.8 60.1,33.3 55.9,33.3 
				48,22.8 44.7,26 			"/>
			<path class="st1" d="M67.9,11c-3.1,0.1-10.8,1.7-10.8,11.3C57.1,32.9,65.4,34,68,34c2.9,0,10.3-2,10.4-11.6
				C78.4,11,67.7,11,67.9,11z M67.9,31.1c-3.1,0-7.4-1.7-7.4-8.6c0-6.6,4.3-8.6,7.3-8.6c3.8,0,7.1,2.8,7.1,8.5
				C74.9,29.7,70.4,31.1,67.9,31.1z"/>
			<path class="st1" d="M90.4,22l9.3,0l0,11.3l-2.6,0l-0.4-2.1c-2,2-4,2.7-7.3,2.7c-4.7,0-9.8-3.8-9.8-11.5
				c0-5.3,3.5-11.4,10.3-11.3c3.6,0,8.5,1.3,9.4,7l-3.4,0c-0.4-1.4-1.6-4.3-5.9-4.3c-3.5,0-7,2.2-7,8.8c0,6.3,3.9,8.6,6.8,8.6
				c2.9,0,5.6-1,6.7-6.2h-6.2L90.4,22z"/>
			<path class="st1" d="M111.3,11.7l-4.4,0l-6.8,21.7h3.5l1.8-5.9l8.4,0l2.3,5.9l3.6,0L111.3,11.7z M106.2,24.6l2.9-9.7l0.6,1.7
				l2.9,8H106.2z"/>
			<path class="st1" d="M115.7,11.6h3.7c2.9,12,3.3,14.1,4,16.4l0,0c0.5-2.2,1.7-5,4.5-16.3h3.3c3.3,12.1,3.7,13.9,4.5,16.5l0-0.2
				c0.5-2,1.1-4.2,4-16.3l3.6,0l-5.9,21.7l-3.3,0c-2.8-9.5-3.1-10.8-4.5-15.9l0,0c-1.2,4-1.5,5.3-4.5,15.9l-3.4,0L115.7,11.6z"/>
			<path class="st1" d="M151.8,11.7h-4.2l-7.6,21.7h3.4l2-5.9l8.5,0l2,5.9l3.5,0L151.8,11.7z M146.3,24.6l3.2-9.3l3.3,9.3
				L146.3,24.6z"/>
		</g>
	</g>
	<rect y="5.4" class="st2" width="200" height="34.3"/>
</g>
</svg>
